<?xml version="1.0" standalone="no"?>
<!DOCTYPE svg PUBLIC "-//W3C//DTD SVG 20010904//EN"
 "http://www.w3.org/TR/2001/REC-SVG-20010904/DTD/svg10.dtd">
<svg version="1.0" xmlns="http://www.w3.org/2000/svg"
 width="500.000000pt" height="500.000000pt" viewBox="0 0 500.000000 500.000000"
 preserveAspectRatio="xMidYMid meet">
<metadata>
Created by potrace 1.15, written by Peter Selinger 2001-2017
</metadata>
<g transform="translate(0.000000,500.000000) scale(0.100000,-0.100000)"
fill="#000000" stroke="none">
<path d="M2400 3324 c-14 -3 -293 -64 -620 -136 -381 -83 -609 -138 -635 -152
-24 -13 -51 -40 -70 -70 l-30 -49 -3 -407 -3 -407 29 -54 c48 -93 41 -90 724
-243 561 -126 615 -136 708 -136 94 0 148 10 708 136 685 153 677 150 725 244
l28 55 -3 412 -3 411 -30 44 c-17 23 -49 53 -70 64 -26 14 -254 69 -640 154
-486 107 -618 133 -695 135 -52 2 -106 1 -120 -1z m-349 -474 c42 -12 55 -24
64 -61 5 -19 0 -34 -20 -57 -15 -18 -22 -32 -16 -32 19 0 51 -43 51 -70 0 -64
-53 -90 -187 -90 l-83 0 0 160 0 160 78 0 c42 0 93 -5 113 -10z m229 -150 l0
-150 -55 0 -55 0 0 150 0 150 55 0 55 0 0 -150z m160 50 l0 -100 60 0 60 0 0
-50 0 -50 -115 0 -115 0 0 150 0 150 55 0 55 0 0 -100z m405 -32 c21 -73 40
-141 43 -150 4 -16 -3 -18 -56 -18 -52 0 -62 3 -67 20 -4 14 -15 20 -36 20
-22 0 -29 -5 -29 -20 0 -18 -7 -20 -65 -20 -47 0 -63 3 -60 13 6 21 33 109 60
200 l26 87 72 0 73 0 39 -132z m185 32 l0 -100 60 0 60 0 0 -50 0 -50 -115 0
-115 0 0 150 0 150 55 0 55 0 0 -100z m-635 -482 c21 -73 40 -141 43 -150 4
-16 -3 -18 -56 -18 -52 0 -62 3 -67 20 -4 14 -15 20 -36 20 -22 0 -29 -5 -29
-20 0 -18 -7 -20 -65 -20 -47 0 -63 3 -60 13 6 21 33 109 60 200 l26 87 72 0
73 0 39 -132z m185 32 l0 -100 60 0 60 0 0 -50 0 -50 -115 0 -115 0 0 150 0
150 55 0 55 0 0 -100z m270 -50 l0 -150 -55 0 -55 0 0 150 0 150 55 0 55 0 0
-150z"/>
</g>
</svg>
